<?xml version="1.0" standalone="no"?>
<!DOCTYPE svg PUBLIC "-//W3C//DTD SVG 20010904//EN"
 "http://www.w3.org/TR/2001/REC-SVG-20010904/DTD/svg10.dtd">
<svg version="1.0" xmlns="http://www.w3.org/2000/svg"
 width="1800.000000pt" height="1800.000000pt" viewBox="0 0 1800.000000 1800.000000"
 preserveAspectRatio="xMidYMid meet">
<metadata>
Created by potrace 1.14, written by Peter Selinger 2001-2017
</metadata>
<g transform="translate(0.000000,1800.000000) scale(0.100000,-0.100000)"
fill="#000000" stroke="none">
<path d="M6260 15820 l0 -2180 -745 0 -745 0 0 -4870 0 -4870 1000 0 1000 0 2
2722 3 2722 1483 -2823 1482 -2824 0 -1848 0 -1849 1000 0 1000 0 0 1860 0
1860 740 0 740 0 0 5100 0 5100 -995 0 -995 0 0 -2862 c0 -1782 -4 -2858 -9
-2852 -6 5 -676 1337 -1490 2961 l-1481 2951 0 1941 0 1941 -995 0 -995 0 0
-2180z"/>
</g>
</svg>
